<svg width="365.8159912109375px" height="84.81351318359374px" xmlns="http://www.w3.org/2000/svg" viewBox="67.09200439453124 32.59324340820313 365.8159912109375 84.81351318359374" style="background: rgba(0, 0, 0, 0);" preserveAspectRatio="xMidYMid"><defs><linearGradient id="editing-shiny-gradient" x1="0.04322727117869957" x2="0.9567727288213004" y1="0.2966316784620999" y2="0.7033683215379001" gradientUnits="objectBoundingBox"><stop offset="0.0" stop-color="#a61b1b"></stop><stop offset="0.5" stop-color="#e10057"></stop><stop offset="1.0" stop-color="#a61b1b"></stop></linearGradient><linearGradient id="editing-shiny-gradient2" x1="0" x2="0" y1="0" y2="1"><stop offset="0.2" stop-color="#fff" stop-opacity="0.8"></stop><stop offset="0.8" stop-color="#fff" stop-opacity="0"></stop></linearGradient><filter id="editing-shiny2" x="-100%" y="-100%" width="300%" height="300%"><feMorphology operator="erode" radius="2"></feMorphology></filter><filter id="editing-shiny" x="-100%" y="-100%" width="300%" height="300%"><feFlood flood-color="#fff" result="flood"></feFlood><feConvolveMatrix in="SourceGraphic" result="conv" order="8,8" divisor="1" kernelMatrix="0 0 0 0 0 0 0 0 0 0 0 1 1 0 0 0 0 0 0 1 1 0 0 0 0 0 1 0 0 1 0 0 0 0 1 0 0 1 0 0 0 1 0 0 0 0 1 0 0 1 1 0 0 1 1 0 0 0 0 1 1 0 0 0 "></feConvolveMatrix><feOffset dx="0" dy="4" in="conv" result="offset"></feOffset><feComposite operator="in" in="flood" in2="offset" result="comp"></feComposite><feGaussianBlur in="offset" stdDeviation="3" result="shadow"></feGaussianBlur><feColorMatrix in="shadow" type="matrix" values="0.7 0 0 0 0  0 0.7 0 0 0  0 0 0.7 0 0  0 0 0 0.3 0" result="dark-shadow"></feColorMatrix><feOffset dx="0" dy="4" in="dark-shadow" result="offset-shadow"></feOffset><feOffset dx="0" dy="2" in="conv" result="offset-2"></feOffset><feComposite operator="out" in="offset" in2="offset-2" result="edge-diff"></feComposite><feGaussianBlur in="edge-diff" stdDeviation="1" result="edge-blur"></feGaussianBlur><feColorMatrix in="edge-blur" result="edge-shadow" type="matrix" values="0 0 0 0 0  0 0 0 0 0  0 0 0 0 0  0 0 0 0.5 0"></feColorMatrix><feComposite operator="in" in="edge-shadow" in2="offset" result="edge-shadow-in"></feComposite><feOffset dx="0" dy="1" in="edge-shadow-in" result="edge-shadow-final"></feOffset><feMerge result="out"><feMergeNode in="offset-shadow"></feMergeNode><feMergeNode in="comp"></feMergeNode><feMergeNode in="edge-shadow-final"></feMergeNode><feMergeNode in="SourceGraphic"></feMergeNode></feMerge></filter></defs><g filter="url(#editing-shiny)"><g transform="translate(49.519999980926514, 104.1121883392334)"><path d="M27.01-20.61L39.94-21.76L39.94-21.76Q35.33-11.65 35.33 0.06L35.33 0.06L35.33 0.06Q33.60 1.28 31.07 1.28L31.07 1.28L31.07 1.28Q28.54 1.28 26.94 0.10L26.94 0.10L26.94 0.10Q25.34-1.09 25.02-2.30L25.02-2.30L25.02-2.30Q23.42-0.64 20.83 0.32L20.83 0.32L20.83 0.32Q18.24 1.28 15.49 1.28L15.49 1.28L15.49 1.28Q12.74 1.28 10.34 0.38L10.34 0.38L10.34 0.38Q7.94-0.51 6.08-2.50L6.08-2.50L6.08-2.50Q1.98-6.85 1.98-15.10L1.98-15.10L1.98-15.10Q1.98-27.90 8.83-35.58L8.83-35.58L8.83-35.58Q15.87-43.52 28.35-43.52L28.35-43.52L28.35-43.52Q36.99-43.52 40.06-39.04L40.06-39.04L40.06-39.04Q41.02-37.63 41.02-35.94L41.02-35.94L41.02-35.94Q41.02-34.24 40.29-32.80L40.29-32.80L40.29-32.80Q39.55-31.36 38.40-30.21L38.40-30.21L38.40-30.21Q35.65-27.65 32.26-27.65L32.26-27.65L32.26-27.65Q30.91-27.65 29.63-28.10L29.63-28.10L29.63-28.10Q29.89-30.02 29.89-32.26L29.89-32.26L29.89-32.26Q29.89-34.50 29.73-35.52L29.73-35.52L29.73-35.52Q29.57-36.54 29.18-37.38L29.18-37.38L29.18-37.38Q28.35-39.10 26.53-39.10L26.53-39.10L26.53-39.10Q24.70-39.10 22.69-37.15L22.69-37.15L22.69-37.15Q20.67-35.20 19.07-32L19.07-32L19.07-32Q15.55-24.83 15.55-16.19L15.55-16.19L15.55-16.19Q15.55-12.22 17.09-9.41L17.09-9.41L17.09-9.41Q18.75-6.34 21.70-6.34L21.70-6.34L21.70-6.34Q22.72-6.34 23.65-6.85L23.65-6.85L23.65-6.85Q24.58-7.36 24.96-7.74L24.96-7.74L27.01-20.61ZM57.02 1.28L57.02 1.28L57.02 1.28Q42.94 1.28 42.94-11.97L42.94-11.97L42.94-11.97Q42.94-21.38 48.13-27.46L48.13-27.46L48.13-27.46Q53.63-33.92 63.17-33.92L63.17-33.92L63.17-33.92Q70.08-33.92 73.60-30.72L73.60-30.72L73.60-30.72Q77.12-27.52 77.12-20.80L77.12-20.80L77.12-20.80Q77.12-10.56 71.62-4.61L71.62-4.61L71.62-4.61Q66.24 1.28 57.02 1.28ZM58.69-26.56L58.69-26.56L58.69-26.56Q57.92-24.83 57.31-22.24L57.31-22.24L57.31-22.24Q56.70-19.65 55.94-15.55L55.94-15.55L55.94-15.55Q55.17-11.46 55.17-6.40L55.17-6.40L55.17-6.40Q55.17-4.74 55.71-3.65L55.71-3.65L55.71-3.65Q56.26-2.56 57.73-2.56L57.73-2.56L57.73-2.56Q59.20-2.56 60.13-3.26L60.13-3.26L60.13-3.26Q61.06-3.97 61.76-5.63L61.76-5.63L61.76-5.63Q63.04-8.58 64.06-14.05L64.06-14.05L64.06-14.05Q65.09-19.52 65.18-21.89L65.18-21.89L65.18-21.89Q65.28-24.26 65.28-26.02L65.28-26.02L65.28-26.02Q65.28-27.78 64.77-28.93L64.77-28.93L64.77-28.93Q64.26-30.08 62.82-30.08L62.82-30.08L62.82-30.08Q61.38-30.08 60.42-29.18L60.42-29.18L60.42-29.18Q59.46-28.29 58.69-26.56ZM101.06-33.92L101.06-33.92L101.06-33.92Q103.36-33.92 105.15-33.41L105.15-33.41L105.15-33.41Q105.22-33.66 105.34-34.37L105.34-34.37L105.66-36.35L105.66-36.35Q105.92-37.63 106.30-39.74L106.30-39.74L107.33-44.80L120.06-46.08L112.96-8.96L112.96-8.96Q112.90-8.58 112.90-7.94L112.90-7.94L112.90-6.91L112.90-6.91Q112.90-5.50 113.60-4.45L113.60-4.45L113.60-4.45Q114.30-3.39 115.46-3.39L115.46-3.39L115.46-3.39Q114.18-0.38 110.27 0.90L110.27 0.90L110.27 0.90Q108.93 1.28 107.04 1.28L107.04 1.28L107.04 1.28Q105.15 1.28 103.42 0.29L103.42 0.29L103.42 0.29Q101.70-0.70 101.18-2.37L101.18-2.37L101.18-2.37Q100.16-0.70 98.11 0.29L98.11 0.29L98.11 0.29Q96.06 1.28 93.09 1.28L93.09 1.28L93.09 1.28Q90.11 1.28 87.65 0.51L87.65 0.51L87.65 0.51Q85.18-0.26 83.65-1.92L83.65-1.92L83.65-1.92Q80.83-5.18 80.83-12.61L80.83-12.61L80.83-12.61Q80.83-22.21 86.46-28.03L86.46-28.03L86.46-28.03Q92.10-33.92 101.06-33.92ZM100.61-30.08L100.61-30.08L100.61-30.08Q98.24-30.08 96.96-27.52L96.96-27.52L96.96-27.52Q95.68-24.96 94.37-18.62L94.37-18.62L94.37-18.62Q93.06-12.29 93.06-6.59L93.06-6.59L93.06-6.59Q93.06-2.69 95.36-2.69L95.36-2.69L95.36-2.69Q97.41-2.69 98.85-4.74L98.85-4.74L98.85-4.74Q100.29-6.78 100.86-10.18L100.86-10.18L104.32-28.93L104.32-28.93Q102.98-30.08 100.61-30.08ZM141.06-33.92L141.06-33.92L141.06-33.92Q143.36-33.92 145.15-33.41L145.15-33.41L145.15-33.41Q145.22-33.66 145.34-34.37L145.34-34.37L145.66-36.35L145.66-36.35Q145.92-37.63 146.30-39.74L146.30-39.74L147.33-44.80L160.06-46.08L152.96-8.96L152.96-8.96Q152.90-8.58 152.90-7.94L152.90-7.94L152.90-6.91L152.90-6.91Q152.90-5.50 153.60-4.45L153.60-4.45L153.60-4.45Q154.30-3.39 155.46-3.39L155.46-3.39L155.46-3.39Q154.18-0.38 150.27 0.90L150.27 0.90L150.27 0.90Q148.93 1.28 147.04 1.28L147.04 1.28L147.04 1.28Q145.15 1.28 143.42 0.29L143.42 0.29L143.42 0.29Q141.70-0.70 141.18-2.37L141.18-2.37L141.18-2.37Q140.16-0.70 138.11 0.29L138.11 0.29L138.11 0.29Q136.06 1.28 133.09 1.28L133.09 1.28L133.09 1.28Q130.11 1.28 127.65 0.51L127.65 0.51L127.65 0.51Q125.18-0.26 123.65-1.92L123.65-1.92L123.65-1.92Q120.83-5.18 120.83-12.61L120.83-12.61L120.83-12.61Q120.83-22.21 126.46-28.03L126.46-28.03L126.46-28.03Q132.10-33.92 141.06-33.92ZM140.61-30.08L140.61-30.08L140.61-30.08Q138.24-30.08 136.96-27.52L136.96-27.52L136.96-27.52Q135.68-24.96 134.37-18.62L134.37-18.62L134.37-18.62Q133.06-12.29 133.06-6.59L133.06-6.59L133.06-6.59Q133.06-2.69 135.36-2.69L135.36-2.69L135.36-2.69Q137.41-2.69 138.85-4.74L138.85-4.74L138.85-4.74Q140.29-6.78 140.86-10.18L140.86-10.18L144.32-28.93L144.32-28.93Q142.98-30.08 140.61-30.08ZM186.82-10.82L186.82-10.82L186.82-10.82Q188.42-9.73 188.42-7.33L188.42-7.33L188.42-7.33Q188.42-4.93 187.20-3.39L187.20-3.39L187.20-3.39Q185.98-1.86 184-0.83L184-0.83L184-0.83Q179.90 1.28 175.49 1.28L175.49 1.28L175.49 1.28Q171.07 1.28 168.48 0.32L168.48 0.32L168.48 0.32Q165.89-0.64 164.16-2.43L164.16-2.43L164.16-2.43Q160.77-5.82 160.77-12.03L160.77-12.03L160.77-12.03Q160.77-21.70 166.02-27.58L166.02-27.58L166.02-27.58Q171.65-33.92 181.44-33.92L181.44-33.92L181.44-33.92Q187.52-33.92 190.53-31.36L190.53-31.36L190.53-31.36Q192.77-29.44 192.77-26.30L192.77-26.30L192.77-26.30Q192.77-15.04 173.31-15.04L173.31-15.04L173.31-15.04Q173.06-13.38 173.06-11.97L173.06-11.97L173.06-11.97Q173.06-9.02 174.37-7.90L174.37-7.90L174.37-7.90Q175.68-6.78 178.11-6.78L178.11-6.78L178.11-6.78Q180.54-6.78 183.14-7.90L183.14-7.90L183.14-7.90Q185.73-9.02 186.82-10.82ZM173.76-17.79L173.76-17.79L173.76-17.79Q178.30-17.79 180.93-20.61L180.93-20.61L180.93-20.61Q183.55-23.30 183.55-27.58L183.55-27.58L183.55-27.58Q183.55-29.06 183.01-29.86L183.01-29.86L183.01-29.86Q182.46-30.66 181.38-30.66L181.38-30.66L181.38-30.66Q180.29-30.66 179.36-30.24L179.36-30.24L179.36-30.24Q178.43-29.82 177.47-28.42L177.47-28.42L177.47-28.42Q175.10-25.22 173.76-17.79ZM214.08-22.46L214.08-22.46L214.08-22.46Q214.98-24.83 214.98-26.88L214.98-26.88L214.98-26.88Q214.98-30.66 211.90-30.66L211.90-30.66L211.90-30.66Q210.30-30.66 208.99-29.22L208.99-29.22L208.99-29.22Q207.68-27.78 207.68-25.98L207.68-25.98L207.68-25.98Q207.68-24.70 208.70-23.68L208.70-23.68L208.70-23.68Q210.18-22.27 213.95-19.97L213.95-19.97L213.95-19.97Q217.73-17.66 219.17-15.78L219.17-15.78L219.17-15.78Q220.61-13.89 220.61-11.30L220.61-11.30L220.61-11.30Q220.61-8.70 219.36-6.34L219.36-6.34L219.36-6.34Q218.11-3.97 215.87-2.30L215.87-2.30L215.87-2.30Q211.07 1.28 203.39 1.28L203.39 1.28L203.39 1.28Q199.23 1.28 196.03-0.90L196.03-0.90L196.03-0.90Q192.83-3.01 192.83-5.50L192.83-5.50L192.83-5.50Q192.83-8 194.66-9.47L194.66-9.47L194.66-9.47Q196.48-10.94 199.17-10.94L199.17-10.94L199.17-10.94Q201.86-10.94 203.52-9.92L203.52-9.92L203.52-9.92Q202.69-7.81 202.69-6.40L202.69-6.40L202.69-6.40Q202.69-2.18 206.27-2.18L206.27-2.18L206.27-2.18Q207.81-2.18 208.83-3.14L208.83-3.14L208.83-3.14Q209.86-4.10 209.86-5.76L209.86-5.76L209.86-5.76Q209.86-9.02 204.35-12.48L204.35-12.48L204.35-12.48Q199.87-15.42 198.85-16.58L198.85-16.58L198.85-16.58Q197.12-18.62 197.12-21.18L197.12-21.18L197.12-21.18Q197.12-23.74 198.34-26.18L198.34-26.18L198.34-26.18Q199.55-28.61 201.79-30.34L201.79-30.34L201.79-30.34Q206.46-33.92 214.59-33.92L214.59-33.92L214.59-33.92Q218.75-33.92 221.22-32.26L221.22-32.26L221.22-32.26Q223.68-30.59 223.68-27.78L223.68-27.78L223.68-27.78Q223.68-24.96 221.98-23.36L221.98-23.36L221.98-23.36Q220.29-21.76 217.22-21.76L217.22-21.76L217.22-21.76Q215.10-21.76 214.08-22.46ZM245.18-22.46L245.18-22.46L245.18-22.46Q246.08-24.83 246.08-26.88L246.08-26.88L246.08-26.88Q246.08-30.66 243.01-30.66L243.01-30.66L243.01-30.66Q241.41-30.66 240.10-29.22L240.10-29.22L240.10-29.22Q238.78-27.78 238.78-25.98L238.78-25.98L238.78-25.98Q238.78-24.70 239.81-23.68L239.81-23.68L239.81-23.68Q241.28-22.27 245.06-19.97L245.06-19.97L245.06-19.97Q248.83-17.66 250.27-15.78L250.27-15.78L250.27-15.78Q251.71-13.89 251.71-11.30L251.71-11.30L251.71-11.30Q251.71-8.70 250.46-6.34L250.46-6.34L250.46-6.34Q249.22-3.97 246.98-2.30L246.98-2.30L246.98-2.30Q242.18 1.28 234.50 1.28L234.50 1.28L234.50 1.28Q230.34 1.28 227.14-0.90L227.14-0.90L227.14-0.90Q223.94-3.01 223.94-5.50L223.94-5.50L223.94-5.50Q223.94-8 225.76-9.47L225.76-9.47L225.76-9.47Q227.58-10.94 230.27-10.94L230.27-10.94L230.27-10.94Q232.96-10.94 234.62-9.92L234.62-9.92L234.62-9.92Q233.79-7.81 233.79-6.40L233.79-6.40L233.79-6.40Q233.79-2.18 237.38-2.18L237.38-2.18L237.38-2.18Q238.91-2.18 239.94-3.14L239.94-3.14L239.94-3.14Q240.96-4.10 240.96-5.76L240.96-5.76L240.96-5.76Q240.96-9.02 235.46-12.48L235.46-12.48L235.46-12.48Q230.98-15.42 229.95-16.58L229.95-16.58L229.95-16.58Q228.22-18.62 228.22-21.18L228.22-21.18L228.22-21.18Q228.22-23.74 229.44-26.18L229.44-26.18L229.44-26.18Q230.66-28.61 232.90-30.34L232.90-30.34L232.90-30.34Q237.57-33.92 245.70-33.92L245.70-33.92L245.70-33.92Q249.86-33.92 252.32-32.26L252.32-32.26L252.32-32.26Q254.78-30.59 254.78-27.78L254.78-27.78L254.78-27.78Q254.78-24.96 253.09-23.36L253.09-23.36L253.09-23.36Q251.39-21.76 248.32-21.76L248.32-21.76L248.32-21.76Q246.21-21.76 245.18-22.46ZM262.27 8.83L262.27 8.83L262.27 8.83Q265.54 8.45 267.58 4.22L267.58 4.22L267.58 4.22Q269.70-0.06 271.62-9.92L271.62-9.92L277.82-42.24L291.71-42.24L285.50-9.92L285.50-9.92Q283.14 2.62 279.23 7.55L279.23 7.55L279.23 7.55Q277.18 10.11 274.59 11.14L274.59 11.14L274.59 11.14Q272 12.16 269.18 12.16L269.18 12.16L269.18 12.16Q266.37 12.16 264.54 11.14L264.54 11.14L264.54 11.14Q262.72 10.11 262.27 8.83ZM307.07 1.28L307.07 1.28L307.07 1.28Q292.99 1.28 292.99-11.97L292.99-11.97L292.99-11.97Q292.99-21.38 298.18-27.46L298.18-27.46L298.18-27.46Q303.68-33.92 313.22-33.92L313.22-33.92L313.22-33.92Q320.13-33.92 323.65-30.72L323.65-30.72L323.65-30.72Q327.17-27.52 327.17-20.80L327.17-20.80L327.17-20.80Q327.17-10.56 321.66-4.61L321.66-4.61L321.66-4.61Q316.29 1.28 307.07 1.28ZM308.74-26.56L308.74-26.56L308.74-26.56Q307.97-24.83 307.36-22.24L307.36-22.24L307.36-22.24Q306.75-19.65 305.98-15.55L305.98-15.55L305.98-15.55Q305.22-11.46 305.22-6.40L305.22-6.40L305.22-6.40Q305.22-4.74 305.76-3.65L305.76-3.65L305.76-3.65Q306.30-2.56 307.78-2.56L307.78-2.56L307.78-2.56Q309.25-2.56 310.18-3.26L310.18-3.26L310.18-3.26Q311.10-3.97 311.81-5.63L311.81-5.63L311.81-5.63Q313.09-8.58 314.11-14.05L314.11-14.05L314.11-14.05Q315.14-19.52 315.23-21.89L315.23-21.89L315.23-21.89Q315.33-24.26 315.33-26.02L315.33-26.02L315.33-26.02Q315.33-27.78 314.82-28.93L314.82-28.93L314.82-28.93Q314.30-30.08 312.86-30.08L312.86-30.08L312.86-30.08Q311.42-30.08 310.46-29.18L310.46-29.18L310.46-29.18Q309.50-28.29 308.74-26.56ZM330.11-3.07L330.11-3.07L338.05-44.80L351.04-46.08L349.06-36.29L349.06-36.29Q348.35-33.28 347.46-31.17L347.46-31.17L347.46-31.17Q348.86-32.96 351.94-33.66L351.94-33.66L351.94-33.66Q352.83-33.92 353.92-33.92L353.92-33.92L353.92-33.92Q359.87-33.92 363.14-30.30L363.14-30.30L363.14-30.30Q366.40-26.69 366.40-19.71L366.40-19.71L366.40-19.71Q366.40-10.62 361.22-4.93L361.22-4.93L361.22-4.93Q355.65 1.28 345.54 1.28L345.54 1.28L345.54 1.28Q338.56 1.28 333.31-1.02L333.31-1.02L333.31-1.02Q331.46-1.86 330.11-3.07ZM346.37-22.40L342.98-3.65L342.98-3.65Q344.32-2.50 345.98-2.50L345.98-2.50L345.98-2.50Q347.65-2.50 348.61-3.14L348.61-3.14L348.61-3.14Q349.57-3.78 350.27-5.06L350.27-5.06L350.27-5.06Q352.19-8.51 353.73-19.07L353.73-19.07L353.73-19.07Q354.18-22.08 354.18-25.09L354.18-25.09L354.18-25.09Q354.18-28.10 353.50-29.06L353.50-29.06L353.50-29.06Q352.83-30.02 351.55-30.02L351.55-30.02L351.55-30.02Q347.65-30.02 346.37-22.40L346.37-22.40ZM389.38-22.46L389.38-22.46L389.38-22.46Q390.27-24.83 390.27-26.88L390.27-26.88L390.27-26.88Q390.27-30.66 387.20-30.66L387.20-30.66L387.20-30.66Q385.60-30.66 384.29-29.22L384.29-29.22L384.29-29.22Q382.98-27.78 382.98-25.98L382.98-25.98L382.98-25.98Q382.98-24.70 384-23.68L384-23.68L384-23.68Q385.47-22.27 389.25-19.97L389.25-19.97L389.25-19.97Q393.02-17.66 394.46-15.78L394.46-15.78L394.46-15.78Q395.90-13.89 395.90-11.30L395.90-11.30L395.90-11.30Q395.90-8.70 394.66-6.34L394.66-6.34L394.66-6.34Q393.41-3.97 391.17-2.30L391.17-2.30L391.17-2.30Q386.37 1.28 378.69 1.28L378.69 1.28L378.69 1.28Q374.53 1.28 371.33-0.90L371.33-0.90L371.33-0.90Q368.13-3.01 368.13-5.50L368.13-5.50L368.13-5.50Q368.13-8 369.95-9.47L369.95-9.47L369.95-9.47Q371.78-10.94 374.46-10.94L374.46-10.94L374.46-10.94Q377.15-10.94 378.82-9.92L378.82-9.92L378.82-9.92Q377.98-7.81 377.98-6.40L377.98-6.40L377.98-6.40Q377.98-2.18 381.57-2.18L381.57-2.18L381.57-2.18Q383.10-2.18 384.13-3.14L384.13-3.14L384.13-3.14Q385.15-4.10 385.15-5.76L385.15-5.76L385.15-5.76Q385.15-9.02 379.65-12.48L379.65-12.48L379.65-12.48Q375.17-15.42 374.14-16.58L374.14-16.58L374.14-16.58Q372.42-18.62 372.42-21.18L372.42-21.18L372.42-21.18Q372.42-23.74 373.63-26.18L373.63-26.18L373.63-26.18Q374.85-28.61 377.09-30.34L377.09-30.34L377.09-30.34Q381.76-33.92 389.89-33.92L389.89-33.92L389.89-33.92Q394.05-33.92 396.51-32.26L396.51-32.26L396.51-32.26Q398.98-30.59 398.98-27.78L398.98-27.78L398.98-27.78Q398.98-24.96 397.28-23.36L397.28-23.36L397.28-23.36Q395.58-21.76 392.51-21.76L392.51-21.76L392.51-21.76Q390.40-21.76 389.38-22.46Z" fill="url(#editing-shiny-gradient)"></path></g></g><g filter="url(#editing-shiny2)"><g transform="translate(49.519999980926514, 104.1200008392334)"><path d="M27.01-20.61L39.94-21.76L39.94-21.76Q35.33-11.65 35.33 0.06L35.33 0.06L35.33 0.06Q33.60 1.28 31.07 1.28L31.07 1.28L31.07 1.28Q28.54 1.28 26.94 0.10L26.94 0.10L26.94 0.10Q25.34-1.09 25.02-2.30L25.02-2.30L25.02-2.30Q23.42-0.64 20.83 0.32L20.83 0.32L20.83 0.32Q18.24 1.28 15.49 1.28L15.49 1.28L15.49 1.28Q12.74 1.28 10.34 0.38L10.34 0.38L10.34 0.38Q7.94-0.51 6.08-2.50L6.08-2.50L6.08-2.50Q1.98-6.85 1.98-15.10L1.98-15.10L1.98-15.10Q1.98-27.90 8.83-35.58L8.83-35.58L8.83-35.58Q15.87-43.52 28.35-43.52L28.35-43.52L28.35-43.52Q36.99-43.52 40.06-39.04L40.06-39.04L40.06-39.04Q41.02-37.63 41.02-35.94L41.02-35.94L41.02-35.94Q41.02-34.24 40.29-32.80L40.29-32.80L40.29-32.80Q39.55-31.36 38.40-30.21L38.40-30.21L38.40-30.21Q35.65-27.65 32.26-27.65L32.26-27.65L32.26-27.65Q30.91-27.65 29.63-28.10L29.63-28.10L29.63-28.10Q29.89-30.02 29.89-32.26L29.89-32.26L29.89-32.26Q29.89-34.50 29.73-35.52L29.73-35.52L29.73-35.52Q29.57-36.54 29.18-37.38L29.18-37.38L29.18-37.38Q28.35-39.10 26.53-39.10L26.53-39.10L26.53-39.10Q24.70-39.10 22.69-37.15L22.69-37.15L22.69-37.15Q20.67-35.20 19.07-32L19.07-32L19.07-32Q15.55-24.83 15.55-16.19L15.55-16.19L15.55-16.19Q15.55-12.22 17.09-9.41L17.09-9.41L17.09-9.41Q18.75-6.34 21.70-6.34L21.70-6.34L21.70-6.34Q22.72-6.34 23.65-6.85L23.65-6.85L23.65-6.85Q24.58-7.36 24.96-7.74L24.96-7.74L27.01-20.61ZM57.02 1.28L57.02 1.28L57.02 1.28Q42.94 1.28 42.94-11.97L42.94-11.97L42.94-11.97Q42.94-21.38 48.13-27.46L48.13-27.46L48.13-27.46Q53.63-33.92 63.17-33.92L63.17-33.92L63.17-33.92Q70.08-33.92 73.60-30.72L73.60-30.72L73.60-30.72Q77.12-27.52 77.12-20.80L77.12-20.80L77.12-20.80Q77.12-10.56 71.62-4.61L71.62-4.61L71.62-4.61Q66.24 1.28 57.02 1.28ZM58.69-26.56L58.69-26.56L58.69-26.56Q57.92-24.83 57.31-22.24L57.31-22.24L57.31-22.24Q56.70-19.65 55.94-15.55L55.94-15.55L55.94-15.55Q55.17-11.46 55.17-6.40L55.17-6.40L55.17-6.40Q55.17-4.74 55.71-3.65L55.71-3.65L55.71-3.65Q56.26-2.56 57.73-2.56L57.73-2.56L57.73-2.56Q59.20-2.56 60.13-3.26L60.13-3.26L60.13-3.26Q61.06-3.97 61.76-5.63L61.76-5.63L61.76-5.63Q63.04-8.58 64.06-14.05L64.06-14.05L64.06-14.05Q65.09-19.52 65.18-21.89L65.18-21.89L65.18-21.89Q65.28-24.26 65.28-26.02L65.28-26.02L65.28-26.02Q65.28-27.78 64.77-28.93L64.77-28.93L64.77-28.93Q64.26-30.08 62.82-30.08L62.82-30.08L62.82-30.08Q61.38-30.08 60.42-29.18L60.42-29.18L60.42-29.18Q59.46-28.29 58.69-26.56ZM101.06-33.92L101.06-33.92L101.06-33.92Q103.36-33.92 105.15-33.41L105.15-33.41L105.15-33.41Q105.22-33.66 105.34-34.37L105.34-34.37L105.66-36.35L105.66-36.35Q105.92-37.63 106.30-39.74L106.30-39.74L107.33-44.80L120.06-46.08L112.96-8.96L112.96-8.96Q112.90-8.58 112.90-7.94L112.90-7.94L112.90-6.91L112.90-6.91Q112.90-5.50 113.60-4.45L113.60-4.45L113.60-4.45Q114.30-3.39 115.46-3.39L115.46-3.39L115.46-3.39Q114.18-0.38 110.27 0.90L110.27 0.90L110.27 0.90Q108.93 1.28 107.04 1.28L107.04 1.28L107.04 1.28Q105.15 1.28 103.42 0.29L103.42 0.29L103.42 0.29Q101.70-0.70 101.18-2.37L101.18-2.37L101.18-2.37Q100.16-0.70 98.11 0.29L98.11 0.29L98.11 0.29Q96.06 1.28 93.09 1.28L93.09 1.28L93.09 1.28Q90.11 1.28 87.65 0.51L87.65 0.51L87.65 0.51Q85.18-0.26 83.65-1.92L83.65-1.92L83.65-1.92Q80.83-5.18 80.83-12.61L80.83-12.61L80.83-12.61Q80.83-22.21 86.46-28.03L86.46-28.03L86.46-28.03Q92.10-33.92 101.06-33.92ZM100.61-30.08L100.61-30.08L100.61-30.08Q98.24-30.08 96.96-27.52L96.96-27.52L96.96-27.52Q95.68-24.96 94.37-18.62L94.37-18.62L94.37-18.62Q93.06-12.29 93.06-6.59L93.06-6.59L93.06-6.59Q93.06-2.69 95.36-2.69L95.36-2.69L95.36-2.69Q97.41-2.69 98.85-4.74L98.85-4.74L98.85-4.74Q100.29-6.78 100.86-10.18L100.86-10.18L104.32-28.93L104.32-28.93Q102.98-30.08 100.61-30.08ZM141.06-33.92L141.06-33.92L141.06-33.92Q143.36-33.92 145.15-33.41L145.15-33.41L145.15-33.41Q145.22-33.66 145.34-34.37L145.34-34.37L145.66-36.35L145.66-36.35Q145.92-37.63 146.30-39.74L146.30-39.74L147.33-44.80L160.06-46.08L152.96-8.96L152.96-8.96Q152.90-8.58 152.90-7.94L152.90-7.94L152.90-6.91L152.90-6.91Q152.90-5.50 153.60-4.45L153.60-4.45L153.60-4.45Q154.30-3.39 155.46-3.39L155.46-3.39L155.46-3.39Q154.18-0.38 150.27 0.90L150.27 0.90L150.27 0.90Q148.93 1.28 147.04 1.28L147.04 1.28L147.04 1.28Q145.15 1.28 143.42 0.29L143.42 0.29L143.42 0.29Q141.70-0.70 141.18-2.37L141.18-2.37L141.18-2.37Q140.16-0.70 138.11 0.29L138.11 0.29L138.11 0.29Q136.06 1.28 133.09 1.28L133.09 1.28L133.09 1.28Q130.11 1.28 127.65 0.51L127.65 0.51L127.65 0.51Q125.18-0.26 123.65-1.92L123.65-1.92L123.65-1.92Q120.83-5.18 120.83-12.61L120.83-12.61L120.83-12.61Q120.83-22.21 126.46-28.03L126.46-28.03L126.46-28.03Q132.10-33.92 141.06-33.92ZM140.61-30.08L140.61-30.08L140.61-30.08Q138.24-30.08 136.96-27.52L136.96-27.52L136.96-27.52Q135.68-24.96 134.37-18.62L134.37-18.62L134.37-18.62Q133.06-12.29 133.06-6.59L133.06-6.59L133.06-6.59Q133.06-2.69 135.36-2.69L135.36-2.69L135.36-2.69Q137.41-2.69 138.85-4.74L138.85-4.74L138.85-4.74Q140.29-6.78 140.86-10.18L140.86-10.18L144.32-28.93L144.32-28.93Q142.98-30.08 140.61-30.08ZM186.82-10.82L186.82-10.82L186.82-10.82Q188.42-9.73 188.42-7.33L188.42-7.33L188.42-7.33Q188.42-4.93 187.20-3.39L187.20-3.39L187.20-3.39Q185.98-1.86 184-0.83L184-0.83L184-0.83Q179.90 1.28 175.49 1.28L175.49 1.28L175.49 1.28Q171.07 1.28 168.48 0.32L168.48 0.32L168.48 0.32Q165.89-0.64 164.16-2.43L164.16-2.43L164.16-2.43Q160.77-5.82 160.77-12.03L160.77-12.03L160.77-12.03Q160.77-21.70 166.02-27.58L166.02-27.58L166.02-27.58Q171.65-33.92 181.44-33.92L181.44-33.92L181.44-33.92Q187.52-33.92 190.53-31.36L190.53-31.36L190.53-31.36Q192.77-29.44 192.77-26.30L192.77-26.30L192.77-26.30Q192.77-15.04 173.31-15.04L173.31-15.04L173.31-15.04Q173.06-13.38 173.06-11.97L173.06-11.97L173.06-11.97Q173.06-9.02 174.37-7.90L174.37-7.90L174.37-7.90Q175.68-6.78 178.11-6.78L178.11-6.78L178.11-6.78Q180.54-6.78 183.14-7.90L183.14-7.90L183.14-7.90Q185.73-9.02 186.82-10.82ZM173.76-17.79L173.76-17.79L173.76-17.79Q178.30-17.79 180.93-20.61L180.93-20.61L180.93-20.61Q183.55-23.30 183.55-27.58L183.55-27.58L183.55-27.58Q183.55-29.06 183.01-29.86L183.01-29.86L183.01-29.86Q182.46-30.66 181.38-30.66L181.38-30.66L181.38-30.66Q180.29-30.66 179.36-30.24L179.36-30.24L179.36-30.24Q178.43-29.82 177.47-28.42L177.47-28.42L177.47-28.42Q175.10-25.22 173.76-17.79ZM214.08-22.46L214.08-22.46L214.08-22.46Q214.98-24.83 214.98-26.88L214.98-26.88L214.98-26.88Q214.98-30.66 211.90-30.66L211.90-30.66L211.90-30.66Q210.30-30.66 208.99-29.22L208.99-29.22L208.99-29.22Q207.68-27.78 207.68-25.98L207.68-25.98L207.68-25.98Q207.68-24.70 208.70-23.68L208.70-23.68L208.70-23.68Q210.18-22.27 213.95-19.97L213.95-19.97L213.95-19.97Q217.73-17.66 219.17-15.78L219.17-15.78L219.17-15.78Q220.61-13.89 220.61-11.30L220.61-11.30L220.61-11.30Q220.61-8.70 219.36-6.34L219.36-6.34L219.36-6.34Q218.11-3.97 215.87-2.30L215.87-2.30L215.87-2.30Q211.07 1.28 203.39 1.28L203.39 1.28L203.39 1.28Q199.23 1.28 196.03-0.90L196.03-0.90L196.03-0.90Q192.83-3.01 192.83-5.50L192.83-5.50L192.83-5.50Q192.83-8 194.66-9.47L194.66-9.47L194.66-9.47Q196.48-10.94 199.17-10.94L199.17-10.94L199.17-10.94Q201.86-10.94 203.52-9.92L203.52-9.92L203.52-9.92Q202.69-7.81 202.69-6.40L202.69-6.40L202.69-6.40Q202.69-2.18 206.27-2.18L206.27-2.18L206.27-2.18Q207.81-2.18 208.83-3.14L208.83-3.14L208.83-3.14Q209.86-4.10 209.86-5.76L209.86-5.76L209.86-5.76Q209.86-9.02 204.35-12.48L204.35-12.48L204.35-12.48Q199.87-15.42 198.85-16.58L198.85-16.58L198.85-16.58Q197.12-18.62 197.12-21.18L197.12-21.18L197.12-21.18Q197.12-23.74 198.34-26.18L198.34-26.18L198.34-26.18Q199.55-28.61 201.79-30.34L201.79-30.34L201.79-30.34Q206.46-33.92 214.59-33.92L214.59-33.92L214.59-33.92Q218.75-33.92 221.22-32.26L221.22-32.26L221.22-32.26Q223.68-30.59 223.68-27.78L223.68-27.78L223.68-27.78Q223.68-24.96 221.98-23.36L221.98-23.36L221.98-23.36Q220.29-21.76 217.22-21.76L217.22-21.76L217.22-21.76Q215.10-21.76 214.08-22.46ZM245.18-22.46L245.18-22.46L245.18-22.46Q246.08-24.83 246.08-26.88L246.08-26.88L246.08-26.88Q246.08-30.66 243.01-30.66L243.01-30.66L243.01-30.66Q241.41-30.66 240.10-29.22L240.10-29.22L240.10-29.22Q238.78-27.78 238.78-25.98L238.78-25.98L238.78-25.98Q238.78-24.70 239.81-23.68L239.81-23.68L239.81-23.68Q241.28-22.27 245.06-19.97L245.06-19.97L245.06-19.97Q248.83-17.66 250.27-15.78L250.27-15.78L250.27-15.78Q251.71-13.89 251.71-11.30L251.71-11.30L251.71-11.30Q251.71-8.70 250.46-6.34L250.46-6.34L250.46-6.34Q249.22-3.97 246.98-2.30L246.98-2.30L246.98-2.30Q242.18 1.28 234.50 1.28L234.50 1.28L234.50 1.28Q230.34 1.28 227.14-0.90L227.14-0.90L227.14-0.90Q223.94-3.01 223.94-5.50L223.94-5.50L223.94-5.50Q223.94-8 225.76-9.47L225.76-9.47L225.76-9.47Q227.58-10.94 230.27-10.94L230.27-10.94L230.27-10.94Q232.96-10.94 234.62-9.92L234.62-9.92L234.62-9.92Q233.79-7.81 233.79-6.40L233.79-6.40L233.79-6.40Q233.79-2.18 237.38-2.18L237.38-2.18L237.38-2.18Q238.91-2.18 239.94-3.14L239.94-3.14L239.94-3.14Q240.96-4.10 240.96-5.76L240.96-5.76L240.96-5.76Q240.96-9.02 235.46-12.48L235.46-12.48L235.46-12.48Q230.98-15.42 229.95-16.58L229.95-16.58L229.95-16.58Q228.22-18.62 228.22-21.18L228.22-21.18L228.22-21.18Q228.22-23.74 229.44-26.18L229.44-26.18L229.44-26.18Q230.66-28.61 232.90-30.34L232.90-30.34L232.90-30.34Q237.57-33.92 245.70-33.92L245.70-33.92L245.70-33.92Q249.86-33.92 252.32-32.26L252.32-32.26L252.32-32.26Q254.78-30.59 254.78-27.78L254.78-27.78L254.78-27.78Q254.78-24.96 253.09-23.36L253.09-23.36L253.09-23.36Q251.39-21.76 248.32-21.76L248.32-21.76L248.32-21.76Q246.21-21.76 245.18-22.46ZM262.27 8.83L262.27 8.83L262.27 8.83Q265.54 8.45 267.58 4.22L267.58 4.22L267.58 4.22Q269.70-0.06 271.62-9.92L271.62-9.92L277.82-42.24L291.71-42.24L285.50-9.92L285.50-9.92Q283.14 2.62 279.23 7.55L279.23 7.55L279.23 7.55Q277.18 10.11 274.59 11.14L274.59 11.14L274.59 11.14Q272 12.16 269.18 12.16L269.18 12.16L269.18 12.16Q266.37 12.16 264.54 11.14L264.54 11.14L264.54 11.14Q262.72 10.11 262.27 8.83ZM307.07 1.28L307.07 1.28L307.07 1.28Q292.99 1.28 292.99-11.97L292.99-11.97L292.99-11.97Q292.99-21.38 298.18-27.46L298.18-27.46L298.18-27.46Q303.68-33.92 313.22-33.92L313.22-33.92L313.22-33.92Q320.13-33.92 323.65-30.72L323.65-30.72L323.65-30.72Q327.17-27.52 327.17-20.80L327.17-20.80L327.17-20.80Q327.17-10.56 321.66-4.61L321.66-4.61L321.66-4.61Q316.29 1.28 307.07 1.28ZM308.74-26.56L308.74-26.56L308.74-26.56Q307.97-24.83 307.36-22.24L307.36-22.24L307.36-22.24Q306.75-19.65 305.98-15.55L305.98-15.55L305.98-15.55Q305.22-11.46 305.22-6.40L305.22-6.40L305.22-6.40Q305.22-4.74 305.76-3.65L305.76-3.65L305.76-3.65Q306.30-2.56 307.78-2.56L307.78-2.56L307.78-2.56Q309.25-2.56 310.18-3.26L310.18-3.26L310.18-3.26Q311.10-3.97 311.81-5.63L311.81-5.63L311.81-5.63Q313.09-8.58 314.11-14.05L314.11-14.05L314.11-14.05Q315.14-19.52 315.23-21.89L315.23-21.89L315.23-21.89Q315.33-24.26 315.33-26.02L315.33-26.02L315.33-26.02Q315.33-27.78 314.82-28.93L314.82-28.93L314.82-28.93Q314.30-30.08 312.86-30.08L312.86-30.08L312.86-30.08Q311.42-30.08 310.46-29.18L310.46-29.18L310.46-29.18Q309.50-28.29 308.74-26.56ZM330.11-3.07L330.11-3.07L338.05-44.80L351.04-46.08L349.06-36.29L349.06-36.29Q348.35-33.28 347.46-31.17L347.46-31.17L347.46-31.17Q348.86-32.96 351.94-33.66L351.94-33.66L351.94-33.66Q352.83-33.92 353.92-33.92L353.92-33.92L353.92-33.92Q359.87-33.92 363.14-30.30L363.14-30.30L363.14-30.30Q366.40-26.69 366.40-19.71L366.40-19.71L366.40-19.71Q366.40-10.62 361.22-4.93L361.22-4.93L361.22-4.93Q355.65 1.28 345.54 1.28L345.54 1.28L345.54 1.28Q338.56 1.28 333.31-1.02L333.31-1.02L333.31-1.02Q331.46-1.86 330.11-3.07ZM346.37-22.40L342.98-3.65L342.98-3.65Q344.32-2.50 345.98-2.50L345.98-2.50L345.98-2.50Q347.65-2.50 348.61-3.14L348.61-3.14L348.61-3.14Q349.57-3.78 350.27-5.06L350.27-5.06L350.27-5.06Q352.19-8.51 353.73-19.07L353.73-19.07L353.73-19.07Q354.18-22.08 354.18-25.09L354.18-25.09L354.18-25.09Q354.18-28.10 353.50-29.06L353.50-29.06L353.50-29.06Q352.83-30.02 351.55-30.02L351.55-30.02L351.55-30.02Q347.65-30.02 346.37-22.40L346.37-22.40ZM389.38-22.46L389.38-22.46L389.38-22.46Q390.27-24.83 390.27-26.88L390.27-26.88L390.27-26.88Q390.27-30.66 387.20-30.66L387.20-30.66L387.20-30.66Q385.60-30.66 384.29-29.22L384.29-29.22L384.29-29.22Q382.98-27.78 382.98-25.98L382.98-25.98L382.98-25.98Q382.98-24.70 384-23.68L384-23.68L384-23.68Q385.47-22.27 389.25-19.97L389.25-19.97L389.25-19.97Q393.02-17.66 394.46-15.78L394.46-15.78L394.46-15.78Q395.90-13.89 395.90-11.30L395.90-11.30L395.90-11.30Q395.90-8.70 394.66-6.34L394.66-6.34L394.66-6.34Q393.41-3.97 391.17-2.30L391.17-2.30L391.17-2.30Q386.37 1.28 378.69 1.28L378.69 1.28L378.69 1.28Q374.53 1.28 371.33-0.90L371.33-0.90L371.33-0.90Q368.13-3.01 368.13-5.50L368.13-5.50L368.13-5.50Q368.13-8 369.95-9.47L369.95-9.47L369.95-9.47Q371.78-10.94 374.46-10.94L374.46-10.94L374.46-10.94Q377.15-10.94 378.82-9.92L378.82-9.92L378.82-9.92Q377.98-7.81 377.98-6.40L377.98-6.40L377.98-6.40Q377.98-2.18 381.57-2.18L381.57-2.18L381.57-2.18Q383.10-2.18 384.13-3.14L384.13-3.14L384.13-3.14Q385.15-4.10 385.15-5.76L385.15-5.76L385.15-5.76Q385.15-9.02 379.65-12.48L379.65-12.48L379.65-12.48Q375.17-15.42 374.14-16.58L374.14-16.58L374.14-16.58Q372.42-18.62 372.42-21.18L372.42-21.18L372.42-21.18Q372.42-23.74 373.63-26.18L373.63-26.18L373.63-26.18Q374.85-28.61 377.09-30.34L377.09-30.34L377.09-30.34Q381.76-33.92 389.89-33.92L389.89-33.92L389.89-33.92Q394.05-33.92 396.51-32.26L396.51-32.26L396.51-32.26Q398.98-30.59 398.98-27.78L398.98-27.78L398.98-27.78Q398.98-24.96 397.28-23.36L397.28-23.36L397.28-23.36Q395.58-21.76 392.51-21.76L392.51-21.76L392.51-21.76Q390.40-21.76 389.38-22.46Z" fill="url(#editing-shiny-gradient2)"></path></g></g><style>text {
  font-size: 64px;
  font-family: Arial Black;
  dominant-baseline: central;
  text-anchor: middle;
}</style></svg>